<?xml version="1.0" standalone="no"?>
<!DOCTYPE svg PUBLIC "-//W3C//DTD SVG 20010904//EN"
 "http://www.w3.org/TR/2001/REC-SVG-20010904/DTD/svg10.dtd">
<svg version="1.0" xmlns="http://www.w3.org/2000/svg"
 width="500.000000pt" height="500.000000pt" viewBox="0 0 500.000000 500.000000"
 preserveAspectRatio="xMidYMid meet">

<g transform="translate(0.000000,500.000000) scale(0.100000,-0.100000)"
fill="#000000" stroke="none">
<path d="M0 2500 l0 -2500 2500 0 2500 0 0 2500 0 2500 -2500 0 -2500 0 0
-2500z m2040 1607 c133 -65 190 -224 127 -360 l-25 -55 77 -75 76 -76 65 32
c57 28 74 32 145 32 67 -1 89 -5 135 -29 65 -33 113 -76 146 -133 l25 -41 67
19 c37 11 88 25 113 31 42 10 46 14 57 52 46 175 302 143 302 -37 0 -47 -20
-87 -60 -120 -60 -51 -156 -44 -205 15 l-26 31 -82 -22 c-159 -43 -144 -31
-149 -119 -7 -121 -67 -213 -174 -267 -51 -26 -70 -30 -139 -30 -44 0 -93 3
-110 8 -29 7 -31 5 -72 -68 -24 -41 -43 -77 -43 -79 0 -3 14 -25 31 -49 66
-94 41 -229 -54 -293 -33 -22 -56 -29 -107 -32 -58 -3 -71 1 -117 27 -139 82
-135 282 7 361 35 19 60 25 109 25 l63 0 44 77 43 76 -38 41 c-62 65 -85 123
-89 221 -3 80 -2 89 30 152 l34 67 -78 78 -77 77 -40 -22 c-60 -34 -152 -39
-223 -13 -62 24 -129 88 -154 146 -21 50 -18 171 5 222 25 54 92 118 144 137
54 20 170 16 217 -7z m571 -1799 c1 -85 16 -263 24 -280 6 -15 2 -18 -18 -18
-22 0 -27 6 -36 50 -6 28 -11 60 -11 70 0 17 -7 20 -44 20 -25 0 -57 -5 -71
-10 -26 -10 -27 -12 -20 -67 5 -42 3 -58 -7 -64 -23 -15 -26 -10 -33 54 -4 34
-12 65 -18 69 -7 4 -6 12 3 23 8 10 17 50 20 93 4 57 9 78 20 80 12 2 14 -10
12 -73 l-4 -76 69 3 68 3 3 70 c3 83 6 95 27 95 11 0 15 -11 16 -42z m-747 13
c9 -10 27 -45 39 -77 21 -53 26 -59 57 -64 41 -6 53 -30 15 -30 -24 0 -26 -3
-20 -27 3 -15 15 -44 25 -66 11 -22 17 -44 14 -48 -13 -22 -31 -4 -58 56 -16
36 -34 65 -39 65 -6 0 -37 -5 -68 -12 -56 -11 -58 -12 -70 -56 -11 -40 -32
-63 -45 -49 -5 4 98 296 113 320 7 12 19 8 37 -12z m1212 -103 l89 -123 7 55
c3 30 6 85 7 123 1 60 3 67 21 67 20 0 20 -5 18 -167 -3 -159 -4 -168 -23
-171 -14 -1 -27 9 -44 35 -13 21 -54 78 -90 127 l-66 88 -7 -48 c-3 -27 -7
-84 -7 -126 -1 -67 -3 -78 -19 -78 -16 0 -17 13 -14 158 2 86 5 163 7 170 10
30 38 4 121 -110z m733 96 c11 -14 27 -48 36 -75 10 -28 22 -52 29 -54 6 -2
23 -6 39 -9 34 -8 35 -26 1 -26 -23 0 -25 -3 -19 -27 3 -15 15 -45 26 -67 16
-34 17 -42 5 -54 -12 -12 -18 -3 -46 57 -36 77 -37 78 -115 58 -46 -12 -51
-17 -66 -58 -9 -24 -24 -45 -33 -47 -9 -2 -16 0 -16 4 0 7 109 305 117 317 8
13 21 7 42 -19z m-1561 -6 c24 -24 14 -37 -18 -21 -40 20 -80 10 -118 -30
-100 -104 -47 -246 82 -222 20 4 56 20 81 36 25 16 53 29 62 29 28 0 -14 -37
-80 -70 -100 -50 -187 -33 -223 44 -47 97 53 244 167 246 19 0 40 -5 47 -12z
m-1119 -9 c28 16 126 13 166 -3 70 -30 37 -68 -92 -110 -29 -10 -55 -21 -58
-26 -3 -4 49 -38 115 -75 66 -38 120 -71 120 -75 0 -5 -7 -11 -16 -14 -11 -4
-52 17 -117 59 -55 36 -106 65 -113 65 -10 0 -14 -15 -14 -55 0 -47 -3 -55
-19 -55 -18 0 -19 10 -23 143 -2 78 -2 146 0 150 2 4 10 3 17 -3 10 -8 19 -8
34 -1z m507 -1 c15 -16 -10 -23 -94 -28 l-87 -5 -3 -58 -3 -59 95 7 c69 5 96
4 96 -4 0 -14 11 -11 -93 -24 -48 -7 -88 -15 -87 -19 0 -5 0 -22 0 -40 l0 -31
111 7 c88 5 110 4 107 -6 -5 -14 -46 -21 -175 -32 l-83 -6 0 152 0 153 104 0
c57 0 108 -3 112 -7z m1822 1 c59 -16 96 -61 88 -107 -3 -19 -12 -45 -21 -58
-25 -38 -104 -92 -169 -114 -102 -34 -96 -42 -96 133 l0 152 78 3 c42 1 96 -3
120 -9z m-553 -160 c0 -112 -2 -134 -15 -134 -12 0 -15 22 -18 124 -3 132 0
155 21 148 9 -3 12 -39 12 -138z m705 1 c0 -113 -3 -140 -14 -140 -20 0 -26
23 -26 103 0 108 10 177 26 177 11 0 14 -29 14 -140z m-355 -615 c85 -118 90
-123 92 -92 2 17 6 74 9 125 5 82 8 92 25 92 18 0 19 -9 19 -147 0 -164 -5
-193 -29 -193 -9 0 -54 53 -106 126 -71 100 -91 122 -96 107 -4 -10 -8 -66 -8
-125 -1 -100 -2 -108 -21 -108 -18 0 -19 6 -14 158 3 86 7 163 10 170 9 29 34
5 119 -113z m-1565 95 c12 -12 37 -54 56 -95 20 -41 39 -75 42 -75 4 0 27 37
52 81 48 87 65 102 86 75 19 -26 56 -276 43 -290 -20 -22 -37 18 -49 120 -8
67 -16 104 -23 101 -6 -2 -31 -40 -56 -85 -24 -45 -50 -82 -56 -82 -7 0 -33
47 -60 105 -26 58 -51 105 -55 105 -9 0 -22 -117 -22 -191 0 -52 -19 -82 -40
-61 -8 8 -6 49 7 149 20 166 31 187 75 143z m648 -32 c-5 -13 -25 -20 -109
-37 -56 -12 -99 -34 -88 -45 3 -3 52 -19 108 -35 56 -16 108 -34 114 -40 19
-19 -13 -60 -72 -88 -97 -48 -229 -33 -207 23 6 16 8 16 22 -4 22 -32 86 -29
155 6 79 40 72 53 -45 78 -54 13 -105 29 -113 37 -31 31 20 76 117 103 60 16
123 18 118 2z m322 3 c0 -15 -13 -20 -95 -36 -118 -22 -136 -46 -52 -69 175
-49 167 -46 167 -70 0 -32 -37 -63 -103 -86 -67 -24 -105 -25 -152 -6 -37 16
-43 27 -22 44 10 8 16 6 26 -10 11 -18 20 -20 67 -15 59 6 139 44 139 66 0 10
-31 22 -98 37 -123 28 -127 29 -127 52 0 46 111 98 213 101 20 1 37 -3 37 -8z
m353 -5 c46 -19 69 -49 74 -99 7 -55 -10 -107 -43 -138 -20 -19 -38 -24 -93
-27 -111 -7 -161 35 -161 133 0 90 54 145 143 145 26 0 62 -6 80 -14z m-973
-137 c0 -106 -3 -140 -12 -137 -21 7 -26 48 -21 153 5 111 8 125 23 125 6 0
10 -51 10 -141z m710 1 c0 -113 -3 -140 -14 -140 -20 0 -26 23 -26 94 0 107
11 186 26 186 11 0 14 -29 14 -140z"/>
<path d="M1817 2212 c-14 -36 -24 -68 -22 -70 5 -5 77 18 88 27 8 8 -20 98
-32 106 -4 2 -19 -26 -34 -63z"/>
<path d="M3757 2212 c-14 -36 -24 -68 -22 -70 5 -5 77 18 88 27 8 8 -20 98
-32 106 -4 2 -19 -26 -34 -63z"/>
<path d="M1140 2271 c-21 -6 -25 -13 -25 -41 0 -33 2 -35 30 -32 38 4 138 53
143 70 4 13 -102 16 -148 3z"/>
<path d="M3323 2273 c-22 -4 -23 -8 -23 -119 0 -109 1 -114 21 -114 34 0 139
61 166 96 32 43 28 89 -9 117 -27 20 -108 31 -155 20z"/>
<path d="M2900 1563 c-8 -3 -27 -17 -42 -31 -23 -21 -28 -34 -28 -75 0 -41 5
-53 30 -79 29 -28 35 -30 86 -26 63 5 99 32 114 86 11 42 -7 94 -39 111 -25
14 -101 23 -121 14z"/>
</g>
</svg>
